# Blender v2.92.0 OBJ File: 'Labyrinth.blend'
# www.blender.org
mtllib Puzzle Board.mtl
o Cube.001_Cube.022
v 2.395034 0.243594 -3.935068
v 2.395034 0.677502 -3.935068
v 2.417505 0.257313 -3.897485
v 2.417505 0.663783 -3.897485
v 3.105754 0.243594 -3.935068
v 3.105754 0.677502 -3.935068
v 3.083283 0.257313 -3.897485
v 3.083283 0.663783 -3.897485
v 2.395034 0.677502 -3.897485
v 2.395034 0.243594 -3.897485
v 3.105754 0.243594 -3.897485
v 3.105754 0.677502 -3.897485
v 2.427676 0.650766 -3.924082
v 2.406355 0.257313 -3.924082
v 3.072134 0.257313 -3.924082
v 3.050812 0.650766 -3.924082
v 2.928074 0.243594 -3.897485
v 2.750394 0.243594 -3.897485
v 2.572714 0.243594 -3.897485
v 2.572714 0.677502 -3.897485
v 2.750394 0.677502 -3.897485
v 2.928074 0.677502 -3.897485
v 2.572714 0.243594 -3.935068
v 2.750394 0.243594 -3.935068
v 2.928074 0.243594 -3.935068
v 2.928074 0.677502 -3.935068
v 2.750394 0.677502 -3.935068
v 2.572714 0.677502 -3.935068
v 2.916839 0.257313 -3.897485
v 2.750394 0.257313 -3.897485
v 2.583949 0.257313 -3.897485
v 2.583949 0.663783 -3.897485
v 2.750394 0.663783 -3.897485
v 2.916839 0.663783 -3.897485
v 2.905689 0.257313 -3.924082
v 2.739244 0.257313 -3.924082
v 2.572799 0.257313 -3.924082
v 2.551478 0.650766 -3.924082
v 2.717922 0.650766 -3.924082
v 2.884367 0.650766 -3.924082
v 2.395034 0.352071 -3.935068
v 2.395034 0.460548 -3.935068
v 2.395034 0.569025 -3.935068
v 2.395034 0.569025 -3.897485
v 2.395034 0.460548 -3.897485
v 2.395034 0.352071 -3.897485
v 3.105754 0.569025 -3.897485
v 3.105754 0.460548 -3.897485
v 3.105754 0.352071 -3.897485
v 3.105754 0.569025 -3.935068
v 3.105754 0.460548 -3.935068
v 3.105754 0.352071 -3.935068
v 2.417505 0.562165 -3.897485
v 2.417505 0.460548 -3.897485
v 2.417505 0.358930 -3.897485
v 3.083283 0.562165 -3.897485
v 3.083283 0.460548 -3.897485
v 3.083283 0.358930 -3.897485
v 2.431230 0.546979 -3.924082
v 2.431230 0.460548 -3.924082
v 2.431230 0.374117 -3.924082
v 3.047258 0.546979 -3.924082
v 3.047258 0.460548 -3.924082
v 3.047258 0.374117 -3.924082
v 2.547924 0.546979 -3.924082
v 2.547924 0.460548 -3.924082
v 2.547924 0.374117 -3.924082
v 2.714369 0.546979 -3.924082
v 2.714369 0.460548 -3.924082
v 2.714369 0.374117 -3.924082
v 2.880814 0.546979 -3.924082
v 2.880814 0.460548 -3.924082
v 2.880814 0.374117 -3.924082
v 2.427676 0.575183 -3.924082
v 2.406355 0.460548 -3.924082
v 2.406355 0.358930 -3.924082
v 2.597675 0.546979 -3.924082
v 2.597675 0.460548 -3.924082
v 2.597675 0.374117 -3.924082
v 2.551478 0.575183 -3.924082
v 2.572799 0.460548 -3.924082
v 2.572799 0.358930 -3.924082
v 2.764119 0.546979 -3.924082
v 2.764119 0.460548 -3.924082
v 2.764119 0.374117 -3.924082
v 2.717922 0.575183 -3.924082
v 2.739244 0.460548 -3.924082
v 2.739244 0.358930 -3.924082
v 2.930564 0.546979 -3.924082
v 2.930564 0.460548 -3.924082
v 2.930564 0.374117 -3.924082
v 3.050812 0.575183 -3.924082
v 3.072134 0.460548 -3.924082
v 3.072134 0.358930 -3.924082
v 2.884367 0.575183 -3.924082
v 2.905689 0.460548 -3.924082
v 2.905689 0.358930 -3.924082
v 2.764119 0.460548 -3.933351
v 2.880814 0.460548 -3.933351
v 2.597675 0.460548 -3.933351
v 2.714369 0.460548 -3.933351
v 2.431230 0.460548 -3.933351
v 2.547924 0.460548 -3.933351
v 2.930564 0.460548 -3.933351
v 3.047258 0.460548 -3.933351
v 2.431230 0.546979 -3.933351
v 2.431230 0.374117 -3.933351
v 2.547924 0.546979 -3.933351
v 2.547924 0.374117 -3.933351
v 2.597675 0.546979 -3.933351
v 2.597675 0.374117 -3.933351
v 2.714369 0.546979 -3.933351
v 2.714369 0.374117 -3.933351
v 2.764119 0.546979 -3.933351
v 2.764119 0.374117 -3.933351
v 2.880814 0.546979 -3.933351
v 2.880814 0.374117 -3.933351
v 3.047258 0.546979 -3.933351
v 3.047258 0.374117 -3.933351
v 2.930564 0.546979 -3.933351
v 2.930564 0.374117 -3.933351
v 2.406355 0.663783 -3.924082
v 2.594121 0.650766 -3.924082
v 2.406355 0.562165 -3.924082
v 2.594121 0.575183 -3.924082
v 2.572799 0.663783 -3.924082
v 2.760566 0.650766 -3.924082
v 2.572799 0.562165 -3.924082
v 2.760566 0.575183 -3.924082
v 2.739244 0.663783 -3.924082
v 2.925598 0.650766 -3.924082
v 2.739244 0.562165 -3.924082
v 2.925598 0.575183 -3.924082
v 2.904276 0.663783 -3.924082
v 3.072134 0.663783 -3.924082
v 3.072134 0.562165 -3.924082
v 2.904276 0.562165 -3.924082
v 2.427676 0.650766 -3.929824
v 2.551478 0.650766 -3.929824
v 2.427676 0.575183 -3.929824
v 2.551478 0.575183 -3.929824
v 2.594121 0.650766 -3.929824
v 2.717922 0.650766 -3.929824
v 2.594121 0.575183 -3.929824
v 2.717922 0.575183 -3.929824
v 2.760566 0.650766 -3.929824
v 2.884367 0.650766 -3.929824
v 2.760566 0.575183 -3.929824
v 2.884367 0.575183 -3.929824
v 2.927011 0.650766 -3.929824
v 3.050812 0.650766 -3.929824
v 3.050812 0.575183 -3.929824
v 2.927011 0.575183 -3.929824
v 2.395034 0.569025 -3.961490
v 2.395034 0.677502 -3.961490
v 3.105754 0.352071 -3.961490
v 3.105754 0.243594 -3.961490
v 2.928074 0.243594 -3.961490
v 2.572714 0.677502 -3.961490
v 2.395034 0.243594 -3.961490
v 2.572714 0.243594 -3.961490
v 2.750394 0.243594 -3.961490
v 3.105754 0.677502 -3.961490
v 2.928074 0.677502 -3.961490
v 2.750394 0.677502 -3.961490
v 2.928074 0.352071 -3.961490
v 2.750394 0.352071 -3.961490
v 2.572714 0.352071 -3.961490
v 2.395034 0.352071 -3.961490
v 2.395034 0.460548 -3.961490
v 3.105754 0.569025 -3.961490
v 3.105754 0.460548 -3.961490
v 2.928074 0.569025 -3.961490
v 2.928074 0.460548 -3.961490
v 2.750394 0.569025 -3.961490
v 2.750394 0.460548 -3.961490
v 2.572714 0.569025 -3.961490
v 2.572714 0.460548 -3.961490
vt 0.562500 0.000000
vt 0.562500 0.250000
vt 0.625000 0.250000
vt 0.625000 0.000000
vt 0.441452 0.492096
vt 0.441452 0.492096
vt 0.382904 0.492096
vt 0.382904 0.492096
vt 0.562500 0.500000
vt 0.562500 0.750000
vt 0.625000 0.750000
vt 0.625000 0.500000
vt 0.687500 0.750000
vt 0.687500 0.750000
vt 0.750000 0.750000
vt 0.750000 0.750000
vt 0.312500 0.500000
vt 0.312500 0.750000
vt 0.375000 0.750000
vt 0.375000 0.500000
vt 0.812500 0.500000
vt 0.812500 0.750000
vt 0.875000 0.750000
vt 0.875000 0.500000
vt 0.441452 0.257904
vt 0.437500 0.250000
vt 0.375000 0.250000
vt 0.382904 0.257904
vt 0.382904 0.433548
vt 0.375000 0.437500
vt 0.617096 0.316452
vt 0.625000 0.312500
vt 0.617096 0.257904
vt 0.558548 0.492096
vt 0.617096 0.492096
vt 0.609596 0.382500
vt 0.609596 0.382500
vt 0.609596 0.426048
vt 0.609596 0.426048
vt 0.382904 0.316452
vt 0.382904 0.316452
vt 0.382904 0.257904
vt 0.617096 0.433548
vt 0.617096 0.433548
vt 0.617096 0.492096
vt 0.558548 0.257904
vt 0.558548 0.257904
vt 0.617096 0.257904
vt 0.617096 0.316452
vt 0.617096 0.375000
vt 0.617096 0.375000
vt 0.382904 0.433548
vt 0.382904 0.375000
vt 0.382904 0.375000
vt 0.566048 0.265404
vt 0.566048 0.265404
vt 0.609596 0.265404
vt 0.609596 0.265404
vt 0.609596 0.323952
vt 0.609596 0.323952
vt 0.609596 0.367500
vt 0.609596 0.367500
vt 0.609596 0.308952
vt 0.609596 0.308952
vt 0.625000 0.437500
vt 0.625000 0.375000
vt 0.375000 0.312500
vt 0.375000 0.375000
vt 0.687500 0.500000
vt 0.750000 0.500000
vt 0.125000 0.500000
vt 0.125000 0.750000
vt 0.187500 0.750000
vt 0.187500 0.500000
vt 0.250000 0.750000
vt 0.250000 0.500000
vt 0.625000 0.000000
vt 0.562500 0.000000
vt 0.625000 0.750000
vt 0.250000 0.750000
vt 0.312500 0.750000
vt 0.437500 0.750000
vt 0.437500 0.750000
vt 0.500000 0.750000
vt 0.500000 0.750000
vt 0.187500 0.750000
vt 0.562500 0.750000
vt 0.125000 0.750000
vt 0.500000 0.000000
vt 0.500000 0.000000
vt 0.812500 0.750000
vt 0.875000 0.750000
vt 0.437500 0.000000
vt 0.437500 0.000000
vt 0.375000 0.750000
vt 0.441452 0.433548
vt 0.441452 0.375000
vt 0.450202 0.266654
vt 0.450202 0.266654
vt 0.500000 0.266654
vt 0.500000 0.266654
vt 0.500000 0.442298
vt 0.500000 0.442298
vt 0.549798 0.442298
vt 0.549798 0.442298
vt 0.441452 0.316452
vt 0.500000 0.366250
vt 0.500000 0.366250
vt 0.450202 0.366250
vt 0.450202 0.366250
vt 0.549798 0.266654
vt 0.549798 0.266654
vt 0.441452 0.257904
vt 0.500000 0.483346
vt 0.500000 0.483346
vt 0.450202 0.483346
vt 0.450202 0.483346
vt 0.549798 0.383750
vt 0.549798 0.383750
vt 0.549798 0.424798
vt 0.549798 0.424798
vt 0.500000 0.257904
vt 0.500000 0.257904
vt 0.549798 0.366250
vt 0.549798 0.366250
vt 0.549798 0.483346
vt 0.549798 0.483346
vt 0.437500 0.500000
vt 0.500000 0.500000
vt 0.500000 0.492096
vt 0.500000 0.250000
vt 0.375000 0.000000
vt 0.375000 0.000000
vt 0.558548 0.492096
vt 0.500000 0.492096
vt 0.500000 0.307702
vt 0.500000 0.316452
vt 0.558548 0.316452
vt 0.549798 0.307702
vt 0.450202 0.307702
vt 0.549798 0.325202
vt 0.500000 0.325202
vt 0.450202 0.325202
vt 0.500000 0.375000
vt 0.558548 0.375000
vt 0.500000 0.383750
vt 0.450202 0.383750
vt 0.500000 0.424798
vt 0.500000 0.433548
vt 0.558548 0.433548
vt 0.450202 0.424798
vt 0.450202 0.442298
vt 0.450202 0.325202
vt 0.500000 0.383750
vt 0.450202 0.442298
vt 0.549798 0.307702
vt 0.500000 0.307702
vt 0.549798 0.325202
vt 0.450202 0.383750
vt 0.450202 0.307702
vt 0.500000 0.424798
vt 0.500000 0.325202
vt 0.450202 0.424798
vt 0.566048 0.308952
vt 0.566048 0.323952
vt 0.566048 0.367500
vt 0.566048 0.382500
vt 0.566048 0.426048
vt 0.609596 0.484596
vt 0.609596 0.441048
vt 0.566048 0.484596
vt 0.566048 0.441048
vt 0.566048 0.323952
vt 0.609596 0.441048
vt 0.609596 0.484596
vt 0.566048 0.308952
vt 0.566048 0.382500
vt 0.566048 0.367500
vt 0.566048 0.484596
vt 0.566048 0.426048
vt 0.566048 0.441048
vt 0.562500 0.937500
vt 0.562500 1.000000
vt 0.625000 1.000000
vt 0.625000 0.937500
vt 0.562500 0.812500
vt 0.625000 0.812500
vt 0.562500 0.875000
vt 0.625000 0.875000
vt 0.375000 0.875000
vt 0.375000 0.937500
vt 0.437500 0.937500
vt 0.437500 0.875000
vt 0.500000 0.937500
vt 0.500000 0.875000
vt 0.375000 0.812500
vt 0.437500 0.812500
vt 0.500000 0.812500
vt 0.375000 1.000000
vt 0.437500 1.000000
vt 0.500000 1.000000
vn -1.0000 0.0000 0.0000
vn -0.9222 0.0000 0.3866
vn 1.0000 0.0000 0.0000
vn 0.0000 1.0000 0.0000
vn 0.0000 -1.0000 0.0000
vn 0.0000 0.0000 1.0000
vn 0.9222 0.0000 -0.3866
vn 0.9710 0.0000 0.2389
vn 0.0000 0.0000 -1.0000
usemtl Material.016
s off
f 43/1/1 44/2/1 9/3/1 2/4/1
f 58/5/2 94/6/2 15/7/2 7/8/2
f 47/9/3 50/10/3 6/11/3 12/12/3
f 26/13/4 164/14/4 165/15/4 27/16/4
f 17/17/5 25/18/5 5/19/5 11/20/5
f 20/21/4 28/22/4 2/23/4 9/24/4
f 55/25/6 46/26/6 10/27/6 3/28/6
f 29/29/6 17/30/6 11/20/6 7/8/6
f 32/31/6 20/32/6 9/3/6 4/33/6
f 56/34/6 47/9/6 12/12/6 8/35/6
f 127/36/5 146/37/5 147/38/5 40/39/5
f 31/40/4 37/41/4 14/42/4 3/28/4
f 34/43/5 134/44/5 135/45/5 8/35/5
f 53/46/7 124/47/7 122/48/7 4/33/7
f 4/33/5 122/48/5 126/49/5 32/31/5
f 32/31/5 126/49/5 130/50/5 33/51/5
f 33/51/5 130/50/5 134/44/5 34/43/5
f 7/8/4 15/7/4 35/52/4 29/29/4
f 29/29/4 35/52/4 36/53/4 30/54/4
f 30/54/4 36/53/4 37/41/4 31/40/4
f 74/55/3 140/56/3 138/57/3 13/58/3
f 123/59/5 142/60/5 143/61/5 39/62/5
f 13/58/5 138/57/5 139/63/5 38/64/5
f 8/35/6 12/12/6 22/65/6 34/43/6
f 34/43/6 22/65/6 21/66/6 33/51/6
f 33/51/6 21/66/6 20/32/6 32/31/6
f 3/28/6 10/27/6 19/67/6 31/40/6
f 31/40/6 19/67/6 18/68/6 30/54/6
f 30/54/6 18/68/6 17/30/6 29/29/6
f 12/12/4 6/11/4 26/13/4 22/69/4
f 22/69/4 26/13/4 27/16/4 21/70/4
f 21/70/4 27/16/4 28/22/4 20/21/4
f 10/71/5 1/72/5 23/73/5 19/74/5
f 19/74/5 23/73/5 24/75/5 18/76/5
f 18/76/5 24/75/5 25/18/5 17/17/5
f 2/4/1 155/77/1 154/78/1 43/1/1
f 6/11/4 163/79/4 164/14/4 26/13/4
f 24/75/5 162/80/5 158/81/5 25/18/5
f 52/82/3 156/83/3 172/84/3 51/85/3
f 23/73/5 161/86/5 162/80/5 24/75/5
f 51/85/3 172/84/3 171/87/3 50/10/3
f 1/72/5 160/88/5 161/86/5 23/73/5
f 43/1/1 154/78/1 170/89/1 42/90/1
f 28/22/4 159/91/4 155/92/4 2/23/4
f 50/10/3 171/87/3 163/79/3 6/11/3
f 42/90/1 170/89/1 169/93/1 41/94/1
f 25/18/5 158/81/5 157/95/5 5/19/5
f 36/53/6 35/52/6 97/96/6 88/97/6
f 61/98/3 107/99/3 102/100/3 60/101/3
f 90/102/3 104/103/3 120/104/3 89/105/3
f 37/41/6 36/53/6 88/97/6 82/106/6
f 69/107/1 101/108/1 113/109/1 70/110/1
f 60/101/3 102/100/3 106/111/3 59/112/3
f 14/42/6 37/41/6 82/106/6 76/113/6
f 63/114/1 105/115/1 119/116/1 64/117/1
f 83/118/5 114/119/5 116/120/5 71/121/5
f 3/28/7 14/42/7 76/113/7 55/25/7
f 55/25/7 76/113/7 75/122/7 54/123/7
f 54/123/7 75/122/7 124/47/7 53/46/7
f 35/52/6 15/7/6 94/6/6 97/96/6
f 68/124/1 112/125/1 101/108/1 69/107/1
f 62/126/1 118/127/1 105/115/1 63/114/1
f 7/8/6 11/20/6 49/128/6 58/5/6
f 58/5/6 49/128/6 48/129/6 57/130/6
f 57/130/6 48/129/6 47/9/6 56/34/6
f 4/33/6 9/3/6 44/2/6 53/46/6
f 53/46/6 44/2/6 45/131/6 54/123/6
f 54/123/6 45/131/6 46/26/6 55/25/6
f 41/94/1 169/93/1 160/132/1 1/133/1
f 27/16/4 165/15/4 159/91/4 28/22/4
f 5/19/3 157/95/3 156/83/3 52/82/3
f 11/20/3 5/19/3 52/82/3 49/128/3
f 49/128/3 52/82/3 51/85/3 48/129/3
f 48/129/3 51/85/3 50/10/3 47/9/3
f 8/35/2 135/45/2 136/134/2 56/34/2
f 56/34/2 136/134/2 93/135/2 57/130/2
f 57/130/2 93/135/2 94/6/2 58/5/2
f 1/133/1 10/27/1 46/26/1 41/94/1
f 41/94/1 46/26/1 45/131/1 42/90/1
f 42/90/1 45/131/1 44/2/1 43/1/1
f 59/112/6 124/47/6 75/122/6 60/101/6
f 60/101/6 75/122/6 76/113/6 61/98/6
f 66/136/6 81/137/6 128/138/6 65/139/6
f 67/140/6 82/106/6 81/137/6 66/136/6
f 61/98/6 76/113/6 82/106/6 67/140/6
f 65/139/6 128/138/6 124/47/6 59/112/6
f 77/141/6 128/138/6 81/137/6 78/142/6
f 78/142/6 81/137/6 82/106/6 79/143/6
f 69/107/6 87/144/6 132/145/6 68/124/6
f 70/110/6 88/97/6 87/144/6 69/107/6
f 79/143/6 82/106/6 88/97/6 70/110/6
f 68/124/6 132/145/6 128/138/6 77/141/6
f 83/118/6 132/145/6 87/144/6 84/146/6
f 84/146/6 87/144/6 88/97/6 85/147/6
f 72/148/6 96/149/6 137/150/6 71/121/6
f 73/151/6 97/96/6 96/149/6 72/148/6
f 85/147/6 88/97/6 97/96/6 73/151/6
f 71/121/6 137/150/6 132/145/6 83/118/6
f 63/114/6 93/135/6 136/134/6 62/126/6
f 64/117/6 94/6/6 93/135/6 63/114/6
f 89/105/6 137/150/6 96/149/6 90/102/6
f 90/102/6 96/149/6 97/96/6 91/152/6
f 91/152/6 97/96/6 94/6/6 64/117/6
f 62/126/6 136/134/6 137/150/6 89/105/6
f 70/110/4 113/109/4 111/153/4 79/143/4
f 84/146/3 98/154/3 114/119/3 83/118/3
f 91/152/3 121/155/3 104/103/3 90/102/3
f 65/139/1 108/156/1 103/157/1 66/136/1
f 77/141/5 110/158/5 112/125/5 68/124/5
f 85/147/3 115/159/3 98/154/3 84/146/3
f 64/117/4 119/116/4 121/155/4 91/152/4
f 66/136/1 103/157/1 109/160/1 67/140/1
f 71/121/1 116/120/1 99/161/1 72/148/1
f 89/105/5 120/104/5 118/127/5 62/126/5
f 67/140/4 109/160/4 107/99/4 61/98/4
f 78/142/3 100/162/3 110/158/3 77/141/3
f 72/148/1 99/161/1 117/163/1 73/151/1
f 59/112/5 106/111/5 108/156/5 65/139/5
f 79/143/3 111/153/3 100/162/3 78/142/3
f 73/151/4 117/163/4 115/159/4 85/147/4
f 38/64/6 126/49/6 122/48/6 13/58/6
f 13/58/6 122/48/6 124/47/6 74/55/6
f 80/164/6 128/138/6 126/49/6 38/64/6
f 74/55/6 124/47/6 128/138/6 80/164/6
f 39/62/6 130/50/6 126/49/6 123/59/6
f 123/59/6 126/49/6 128/138/6 125/165/6
f 86/166/6 132/145/6 130/50/6 39/62/6
f 125/165/6 128/138/6 132/145/6 86/166/6
f 40/39/6 134/44/6 130/50/6 127/36/6
f 127/36/6 130/50/6 132/145/6 129/167/6
f 95/168/6 137/150/6 134/44/6 40/39/6
f 129/167/6 132/145/6 137/150/6 95/168/6
f 16/169/6 135/45/6 134/44/6 131/170/6
f 92/171/6 136/134/6 135/45/6 16/169/6
f 131/170/6 134/44/6 137/150/6 133/172/6
f 133/172/6 137/150/6 136/134/6 92/171/6
f 125/165/3 144/173/3 142/60/3 123/59/3
f 131/170/5 150/174/5 151/175/5 16/169/5
f 38/64/1 139/63/1 141/176/1 80/164/1
f 129/167/3 148/177/3 146/37/3 127/36/3
f 39/62/1 143/61/1 145/178/1 86/166/1
f 16/169/1 151/175/1 152/179/1 92/171/1
f 80/164/4 141/176/4 140/56/4 74/55/4
f 40/39/1 147/38/1 149/180/1 95/168/1
f 86/166/4 145/178/4 144/173/4 125/165/4
f 133/172/8 153/181/8 150/174/8 131/170/8
f 95/168/4 149/180/4 148/177/4 129/167/4
f 92/171/4 152/179/4 153/181/4 133/172/4
f 177/182/9 154/183/9 155/184/9 159/185/9
f 171/87/9 173/186/9 164/187/9 163/79/9
f 173/186/9 175/188/9 165/189/9 164/187/9
f 175/188/9 177/182/9 159/185/9 165/189/9
f 162/190/9 161/191/9 168/192/9 167/193/9
f 167/193/9 168/192/9 178/194/9 176/195/9
f 176/195/9 178/194/9 177/182/9 175/188/9
f 158/196/9 162/190/9 167/193/9 166/197/9
f 166/197/9 167/193/9 176/195/9 174/198/9
f 174/198/9 176/195/9 175/188/9 173/186/9
f 157/95/9 158/196/9 166/197/9 156/83/9
f 156/83/9 166/197/9 174/198/9 172/84/9
f 172/84/9 174/198/9 173/186/9 171/87/9
f 161/191/9 160/199/9 169/200/9 168/192/9
f 168/192/9 169/200/9 170/201/9 178/194/9
f 178/194/9 170/201/9 154/183/9 177/182/9
usemtl Material.005
f 115/159/6 117/163/6 99/161/6 98/154/6
f 98/154/6 99/161/6 116/120/6 114/119/6
f 111/153/6 113/109/6 101/108/6 100/162/6
f 100/162/6 101/108/6 112/125/6 110/158/6
f 107/99/6 109/160/6 103/157/6 102/100/6
f 102/100/6 103/157/6 108/156/6 106/111/6
f 121/155/6 119/116/6 105/115/6 104/103/6
f 104/103/6 105/115/6 118/127/6 120/104/6
usemtl Material.007
f 140/56/6 141/176/6 139/63/6 138/57/6
f 144/173/6 145/178/6 143/61/6 142/60/6
usemtl Material.008
f 148/177/6 149/180/6 147/38/6 146/37/6
usemtl Material.005
f 153/181/6 152/179/6 151/175/6 150/174/6
